<svg width="1440" height="1144" viewBox="0 0 1440 1144" fill="none" xmlns="http://www.w3.org/2000/svg">
<path d="M0.489629 1144L0.489579 0.000812242M180.428 1144L180.428 0.000812242M360.367 1144L360.367 0.000812242M540.306 1144L540.306 0.000812242M720.245 1144L720.245 0.000812242M900.184 1144L900.184 0.000812242M1080.12 1144L1080.12 0.000812242M1260.06 1144L1260.06 0.000812242M1440 1144L1440 0.000812242M0 31.9871H1439.51M0 211.967L1439.51 211.967M0 391.948L1439.51 391.948M0 571.928L1439.51 571.928M0 751.908L1439.51 751.908M0 931.889L1439.51 931.889M0 1111.87L1439.51 1111.87" stroke="url(#paint0_linear_208_654)" stroke-opacity="0.3"/>
<defs>
<linearGradient id="paint0_linear_208_654" x1="612.425" y1="-95.9993" x2="460.527" y2="1084.53" gradientUnits="userSpaceOnUse">
<stop stop-color="white"/>
<stop offset="1" stop-color="white" stop-opacity="0"/>
</linearGradient>
</defs>
</svg>
